<svg width="89" height="64" viewBox="0 0 89 64" fill="none" xmlns="http://www.w3.org/2000/svg">
<rect width="89" height="64" fill="#1E1E1E"/>
<path d="M0 20C0 8.95431 8.95431 0 20 0H69C80.0457 0 89 8.95431 89 20V44C89 55.0457 80.0457 64 69 64H20C8.95431 64 0 55.0457 0 44V20Z" fill="black"/>
<path d="M34.0909 43L34.8409 38.4545L44.7273 31.2727C45.3864 30.7955 45.9545 30.3485 46.4318 29.9318C46.9167 29.5076 47.3068 29.072 47.6023 28.625C47.8977 28.178 48.0909 27.6818 48.1818 27.1364C48.2803 26.5379 48.2348 26.0265 48.0455 25.6023C47.8636 25.1705 47.5682 24.8409 47.1591 24.6136C46.75 24.3864 46.2576 24.2727 45.6818 24.2727C45.0985 24.2727 44.5644 24.3902 44.0795 24.625C43.5947 24.8598 43.1894 25.2045 42.8636 25.6591C42.5455 26.1136 42.3333 26.6667 42.2273 27.3182H36.2273C36.5 25.6818 37.1023 24.2727 38.0341 23.0909C38.9735 21.9091 40.1629 21 41.6023 20.3636C43.0492 19.7273 44.6742 19.4091 46.4773 19.4091C48.3409 19.4091 49.9091 19.7083 51.1818 20.3068C52.4545 20.8977 53.375 21.7311 53.9432 22.8068C54.5189 23.8826 54.6818 25.1439 54.4318 26.5909C54.2803 27.4848 53.9432 28.3712 53.4205 29.25C52.9053 30.1288 52.0758 31.1061 50.9318 32.1818C49.7955 33.25 48.2197 34.5227 46.2045 36L43.7273 37.8182L43.7045 37.9545H52.7955L51.9545 43H34.0909Z" fill="white"/>
</svg>
