<svg width="261" height="95" viewBox="0 0 261 95" fill="none" xmlns="http://www.w3.org/2000/svg">
<rect width="261" height="95" fill="#1E1E1E"/>
<rect width="261" height="95" fill="#171717"/>
<path d="M92.0909 61L92.8409 56.4545L102.727 49.2727C103.386 48.7955 103.955 48.3485 104.432 47.9318C104.917 47.5076 105.307 47.072 105.602 46.625C105.898 46.178 106.091 45.6818 106.182 45.1364C106.28 44.5379 106.235 44.0265 106.045 43.6023C105.864 43.1705 105.568 42.8409 105.159 42.6136C104.75 42.3864 104.258 42.2727 103.682 42.2727C103.098 42.2727 102.564 42.3902 102.08 42.625C101.595 42.8598 101.189 43.2045 100.864 43.6591C100.545 44.1136 100.333 44.6667 100.227 45.3182H94.2273C94.5 43.6818 95.1023 42.2727 96.0341 41.0909C96.9735 39.9091 98.1629 39 99.6023 38.3636C101.049 37.7273 102.674 37.4091 104.477 37.4091C106.341 37.4091 107.909 37.7083 109.182 38.3068C110.455 38.8977 111.375 39.7311 111.943 40.8068C112.519 41.8826 112.682 43.1439 112.432 44.5909C112.28 45.4848 111.943 46.3712 111.42 47.25C110.905 48.1288 110.076 49.1061 108.932 50.1818C107.795 51.25 106.22 52.5227 104.205 54L101.727 55.8182L101.705 55.9545H110.795L109.955 61H92.0909ZM126.597 47L125.824 51.7273H114.915L115.688 47H126.597ZM137.011 61H127.92L131.784 37.7273H140.511C142.905 37.7273 144.905 38.2083 146.511 39.1705C148.117 40.1326 149.258 41.5076 149.932 43.2955C150.606 45.0833 150.739 47.2121 150.33 49.6818C149.936 52.0606 149.136 54.0947 147.932 55.7841C146.735 57.4735 145.205 58.7652 143.341 59.6591C141.485 60.553 139.375 61 137.011 61ZM135.125 55.6364H137.42C138.572 55.6364 139.598 55.4356 140.5 55.0341C141.409 54.625 142.167 53.9432 142.773 52.9886C143.386 52.0265 143.83 50.7121 144.102 49.0455C144.36 47.4697 144.352 46.2538 144.08 45.3977C143.807 44.5341 143.288 43.9356 142.523 43.6023C141.758 43.2614 140.769 43.0909 139.557 43.0909H137.216L135.125 55.6364ZM175.798 49.7727C175.374 52.303 174.533 54.4242 173.276 56.1364C172.018 57.8485 170.491 59.1402 168.696 60.0114C166.901 60.8826 164.98 61.3182 162.935 61.3182C160.753 61.3182 158.859 60.8447 157.253 59.8977C155.647 58.9508 154.476 57.5644 153.741 55.7386C153.007 53.9129 152.859 51.6818 153.298 49.0455C153.707 46.5152 154.541 44.3864 155.798 42.6591C157.056 40.9318 158.59 39.625 160.401 38.7386C162.211 37.8523 164.147 37.4091 166.207 37.4091C168.374 37.4091 170.257 37.8864 171.855 38.8409C173.461 39.7955 174.628 41.1932 175.355 43.0341C176.09 44.875 176.238 47.1212 175.798 49.7727ZM169.435 49.0455C169.647 47.7121 169.662 46.5909 169.48 45.6818C169.298 44.7652 168.916 44.0758 168.332 43.6136C167.749 43.1439 166.965 42.9091 165.98 42.9091C164.859 42.9091 163.866 43.1818 163.003 43.7273C162.139 44.2727 161.423 45.0568 160.855 46.0795C160.287 47.1023 159.889 48.3333 159.662 49.7727C159.42 51.1212 159.397 52.2424 159.594 53.1364C159.798 54.0303 160.2 54.7008 160.798 55.1477C161.404 55.5947 162.192 55.8182 163.162 55.8182C164.268 55.8182 165.245 55.553 166.094 55.0227C166.95 54.4924 167.658 53.7235 168.219 52.7159C168.787 51.7083 169.192 50.4848 169.435 49.0455Z" fill="url(#paint0_radial_0_1)"/>
<defs>
<radialGradient id="paint0_radial_0_1" cx="0" cy="0" r="1" gradientUnits="userSpaceOnUse" gradientTransform="translate(135.012 76) rotate(90) scale(34 48.983)">
<stop offset="0.694915" stop-color="white"/>
<stop offset="1" stop-color="#999999"/>
</radialGradient>
</defs>
</svg>
